<?xml version="1.0" standalone="no"?>
<!DOCTYPE svg PUBLIC "-//W3C//DTD SVG 20010904//EN"
 "http://www.w3.org/TR/2001/REC-SVG-20010904/DTD/svg10.dtd">
<svg version="1.0" xmlns="http://www.w3.org/2000/svg"
 width="370.000000pt" height="375.000000pt" viewBox="0 0 370.000000 375.000000"
 preserveAspectRatio="xMidYMid meet">

<g transform="translate(0.000000,375.000000) scale(0.100000,-0.100000)"
fill="#ffffff" stroke="none">
<path d="M1550 3664 c-275 -57 -436 -118 -651 -244 -168 -99 -359 -265 -491
-425 -120 -145 -269 -438 -308 -605 -25 -105 -41 -179 -45 -210 -57 -429 -11
-754 153 -1090 53 -108 132 -235 191 -306 14 -18 33 -41 41 -52 64 -85 296
-308 333 -321 7 -2 14 -7 17 -10 3 -4 37 -27 75 -52 288 -186 635 -289 973
-289 405 0 783 128 1113 377 104 78 295 271 353 356 20 29 50 72 67 97 39 56
129 233 161 320 87 231 112 384 112 680 0 197 -3 238 -22 330 -33 152 -59 232
-112 346 -42 90 -52 105 -92 128 -60 35 -125 35 -185 1 -49 -30 -68 -60 -77
-128 -5 -41 -1 -61 28 -130 57 -138 88 -265 101 -407 14 -164 14 -199 0 -313
-22 -180 -46 -277 -99 -407 -33 -81 -126 -250 -138 -250 -4 0 -8 -5 -8 -12 0
-19 -75 -112 -162 -201 -203 -206 -436 -343 -671 -393 -73 -15 -157 -19 -157
-6 0 4 16 24 35 45 19 21 35 42 35 46 0 5 6 14 14 20 14 12 70 122 104 206 26
63 56 190 67 275 18 149 6 127 126 230 204 175 307 328 353 523 34 146 40 219
27 359 -7 73 -16 136 -19 140 -4 4 -36 1 -72 -6 -178 -38 -351 -125 -482 -244
-21 -19 -40 -33 -42 -31 -1 2 -33 45 -69 95 -124 171 -292 304 -497 396 -60
26 -115 48 -122 48 -7 0 -42 9 -78 21 -96 30 -223 50 -330 52 l-95 2 -7 -50
c-50 -321 -49 -475 6 -700 26 -109 91 -256 154 -348 83 -120 229 -246 386
-332 132 -73 399 -140 421 -105 12 19 -18 185 -51 289 -62 191 -237 498 -363
636 -22 25 -27 35 -16 35 9 0 18 -7 21 -15 3 -8 14 -17 23 -20 15 -4 100 -86
202 -194 111 -117 231 -355 269 -536 28 -130 24 -306 -10 -390 -70 -177 -149
-269 -293 -340 -145 -71 -263 -81 -416 -34 -115 35 -272 125 -416 239 -66 52
-216 206 -254 260 -114 160 -181 300 -229 475 -83 305 -51 670 85 965 38 82
102 193 115 198 4 2 8 8 8 13 0 18 107 143 187 219 139 132 203 179 354 258
190 100 374 152 542 152 76 0 101 4 143 24 97 45 136 144 94 240 -39 93 -89
117 -239 115 -58 -1 -135 -8 -171 -15z"/>
<path d="M2565 3442 c-94 -50 -113 -66 -144 -117 -68 -111 -77 -228 -27 -336
63 -137 238 -226 373 -189 65 18 115 43 154 80 19 16 36 30 40 30 11 0 57 94
73 150 30 100 -8 222 -95 310 -70 71 -126 95 -234 97 -82 2 -95 0 -140 -25z"/>
</g>
</svg>

